<?xml version="1.0" standalone="no"?><!DOCTYPE svg PUBLIC "-//W3C//DTD SVG 1.1//EN" "http://www.w3.org/Graphics/SVG/1.1/DTD/svg11.dtd"><svg t="1588294706565" class="icon" viewBox="0 0 1024 1024" version="1.1" xmlns="http://www.w3.org/2000/svg" p-id="659" width="128" height="128" xmlns:xlink="http://www.w3.org/1999/xlink"><defs><style type="text/css"></style></defs><path d="M512 1024C230.4 1024 0 793.6 0 512S230.4 0 512 0s512 230.4 512 512-230.4 512-512 512z" fill="#22d6f1" p-id="660" data-spm-anchor-id="a313x.7781069.0.i2" class=""></path><path d="M1024 512c0-32.16-3.144-63.608-8.888-94.168L724.008 335.36l-60.256 25.152s63.288-99.608-54.896-162.584c-21.96 19.04-49.16 102.296 10.856 168.432-30.656 2.064-68.856-3.096-100.184 37.2-13.768 30.648-44.688 67.92-56.768 96.096-9.16 21.392-103.28 77.496-114.424 84.736-11.136 7.232-23.288 11.368-32.4 45.464s4.048 84.736 4.048 84.736l13.168 25.832 161.992 283.144c5.608 0.184 11.2 0.432 16.856 0.432 281.6 0 512-230.4 512-512z" fill="#17abe3" p-id="661" data-spm-anchor-id="a313x.7781069.0.i3" class="selected"></path><path d="M683.408 389.328c55.688 21.304 21.872 84.96 4.976 112.88-18.992 31.392-7.48 56.104-6.632 92.792 1.144 49.832 21.096 101.696 2.424 147.92-13.384 33.144-45.216 56.432-79.568 66.328-34.352 9.904-71.064 7.904-106.312 1.992-22.056-3.704-36.232-21.296-57.16-29.152-18.848-7.072-44.672-3.928-60.96-15.776-34.384-25-60.592-63.48-63.616-105.88-3.016-42.4 20.776-87.376 60.528-102.456 22.144-8.392 47.336-31.64 67.808-43.552 25.424-14.792 31.584-53.632 47.12-78.616 33.16-53.304 63.976-75.248 110.28-72.336 46.304 2.912 81.112 25.856 81.112 25.856" fill="#DD9D00" p-id="662"></path><path d="M605.04 810.952c117.136-30.736 82.32-164.904 78.472-178-17.12-13.416-38.64-21.48-62.088-21.48-55.648 0-100.752 45.04-100.752 100.592 0 49.808 36.288 91.048 83.888 99.072 0.168-0.048 0.288-0.136 0.48-0.184" fill="#F3D8C2" p-id="663"></path><path d="M602.288 358.36c-41.152-1.88-72.672 17.512-97.672 49.256-12.296 15.6-22.064 32-29.952 50.152-4.848 11.168-8.968 22.992-15.416 33.408-8.664 13.992-20.768 20.504-33.816 29.68-18.856 13.272-36.776 25.32-57.528 35.384-18.144 8.8-32.8 23.472-42.824 40.864-21.296 36.912-18.912 81.328 0.576 118.392 10.648 20.248 26.12 38.64 44.184 52.68 18.048 14.032 36.112 13.84 57.512 18.544 21.856 4.808 36.568 20.552 56.776 28.672 23.736 9.536 54.872 9.904 80.008 8.544 43.72-2.36 88.248-19.256 114.424-55.936 33.264-46.6 15.232-102.832 10.784-154.84-2.32-27.12-10.144-61.568-3.016-88.264 5.152-19.296 19.184-36.112 26.416-54.848 13.088-33.88 10.648-69.032-26.008-84.928-7.72-3.352-14.456 8.024-6.664 11.4 38.664 16.768 28.184 55.488 12.672 85.912-6.08 11.912-14.104 22.92-18.136 35.776-5.088 16.208-3.608 32.704-1.84 49.328 2.24 21.072 2.648 42.24 5.416 63.264 3.216 24.424 8.44 49.184 7.24 73.944-2.56 52.856-40.24 90.128-90.536 101.696-26.056 6-52.968 5.416-79.344 2.128-24.272-3.032-38.608-13.608-59.216-25-15.448-8.544-31-10.048-48.112-12.976-23.16-3.96-39.88-18.832-54.48-36.6-30.728-37.4-42.056-90.016-15.592-132.92 11.136-18.048 26.184-28.504 45.064-37.096 18.848-8.576 34.76-21.896 51.656-33.64 14.248-9.904 26.568-17.304 35.784-32.496 10.456-17.232 15.6-37.128 25.56-54.624 23.112-40.576 56.84-73.896 106.072-71.648 8.504 0.384 8.488-12.824 0.008-13.208" fill="#474341" p-id="664"></path><path d="M431.048 787.6c-5.76 5.808-12.984 9.104-21.168 9.416-8.472 0.32-8.512 13.528 0 13.208 11.624-0.44 22.304-5.008 30.512-13.288 5.984-6.04-3.344-15.384-9.344-9.336" fill="#474341" p-id="665"></path><path d="M433.152 792.696c-9.104 12.832-9.872 28.96-3.328 43.04 3.576 7.704 14.96 1 11.4-6.664-4.632-9.968-2.912-20.912 3.328-29.704 4.936-6.944-6.512-13.552-11.4-6.672" fill="#474341" p-id="666"></path><path d="M435.224 801.84c10.64 11.576 20.72 23.608 30.168 36.176 5.048 6.712 16.52 0.136 11.408-6.664-10.12-13.472-20.832-26.44-32.232-38.848-5.768-6.28-15.088 3.08-9.344 9.336M684.88 621.992c-54.864-32.584-135.032-8.656-162.432 49.672-28.056 59.704 11.608 129.912 74.952 141.912 5.864 1.112 8.376-7.864 2.48-8.984-59.352-11.248-98.064-79.648-66.08-134.68 28.44-48.944 97.408-68.96 146.376-39.872 5.168 3.064 9.856-4.984 4.704-8.048" fill="#474341" p-id="667"></path><path d="M675.928 408.472c-2.832-36.8 36.024-52.952 58.224-54.192a28.668 28.668 0 0 0-2.6-12.392c-0.568-1.232-1.272-2.48-2.432-3.184-1.336-0.824-3.016-0.768-4.584-0.68-13.848 0.792-27.984 2.752-40.224 9.28s-23.76 14.72-32.856 29.392c0 0 17.664 23.632 13.392 42.656 9.704-8.264 11.08-10.88 11.08-10.88" fill="#8B7A5C" p-id="668"></path><path d="M657.152 380.024c7.8-11.64 17.952-20.736 30.496-27.024 10.176-5.104 38.904-15.976 39.904 1.272l6.6-6.6c-33.32 2.688-66.032 24.4-64.824 60.792 0.28 8.472 13.488 8.512 13.208 0-0.96-28.72 25.392-45.472 51.616-47.592 3.4-0.272 6.824-2.808 6.6-6.6-0.4-7.048-1.488-17.176-8.304-21.28-7.488-4.504-22.472-0.536-30.384 1.144-23.456 4.992-43.096 19.496-56.312 39.216-4.752 7.088 6.688 13.712 11.4 6.672" fill="#474341" p-id="669"></path><path d="M618.512 353.944c-15.088-13.376-30.944-32.328-36.56-55.968-11.808-49.688 26.128-101.272 26.128-101.272s57.088 28.992 68.896 78.688c11.816 49.696-26.128 101.272-26.128 101.272" fill="#92BE33" p-id="670"></path><path d="M650.848 383.272a6.54 6.54 0 0 1-3.904-1.288 6.6 6.6 0 0 1-1.424-9.224c0.36-0.496 35.976-49.784 25.024-95.84-8.944-37.632-46.6-63.2-60.384-71.456-8.6 13.576-30.728 53.36-21.784 90.984 4.384 18.44 16 36.12 34.504 52.544a6.606 6.606 0 0 1 0.568 9.32 6.606 6.606 0 0 1-9.32 0.568c-20.592-18.248-33.576-38.232-38.6-59.368-12.376-52.072 25.6-104.504 27.224-106.72l8.32-1.976c2.44 1.24 59.952 30.976 72.328 83.048 12.376 52.064-25.608 104.504-27.232 106.712a6.586 6.586 0 0 1-5.32 2.696" fill="#474341" p-id="671"></path><path d="M654.84 374.336c-18.752-42.48-35.144-86.656-41.344-132.904-0.776-5.808-10.032-5.888-9.24 0 6.432 48 23.136 93.464 42.608 137.576 2.392 5.424 10.36 0.72 7.976-4.672" fill="#474341" p-id="672"></path><path d="M639.064 338.344c15.712-13.12 23.368-33.168 18.872-53.304-1.296-5.808-10.208-3.352-8.912 2.456 3.808 17.088-3.352 33.336-16.496 44.312-4.576 3.816 2 10.328 6.536 6.536M627.584 317.208c-9.008-2.032-17.184-6.64-22.72-14.16-3.488-4.744-11.52-0.136-7.984 4.664 6.984 9.488 16.736 15.824 28.24 18.408 5.8 1.312 8.272-7.6 2.464-8.912" fill="#474341" p-id="673"></path><path d="M352.376 674.288c7.632 24.248 22.576 46.112 47.552 54.416 5.704 1.896 8.152-7.104 2.48-8.984-21.72-7.224-34.456-26.976-41.048-47.912-1.792-5.696-10.792-3.264-8.984 2.48M347.544 646.136c0.184 4.248-0.904 14.128 4.432 15.896 3.088 1.024 5.664-1.648 5.896-4.496 0.088-1.008-0.16-2.112-0.288-3.096-0.744-5.864-10.072-5.944-9.32 0 0.128 1 0.376 2.088 0.288 3.096 1.968-1.496 3.936-2.992 5.896-4.496l-0.032-0.008 3.256 3.256c-0.912-3.128-0.672-6.952-0.816-10.16-0.256-5.96-9.576-6-9.312 0.008M353.8 612.776c-3.08 6.952-4.904 13.936-5.848 21.48-0.744 5.936 8.584 5.88 9.32 0 0.72-5.76 2.216-11.464 4.576-16.776 2.4-5.44-5.624-10.184-8.048-4.704" fill="#B77917" p-id="674"></path><path d="M661.088 729.008a4.64 4.64 0 0 1-4.456-3.32l-20.528-68.248a4.654 4.654 0 0 1 3.12-5.8 4.648 4.648 0 0 1 5.8 3.12l20.528 68.248a4.648 4.648 0 0 1-3.12 5.8 4.6 4.6 0 0 1-1.344 0.2M635.696 644.576a4.64 4.64 0 0 1-4.456-3.312l-7.856-26.12a4.654 4.654 0 0 1 3.12-5.8 4.648 4.648 0 0 1 5.8 3.12l7.848 26.096a4.656 4.656 0 0 1-3.112 5.808 4.612 4.612 0 0 1-1.344 0.208M634.176 776.736a4.66 4.66 0 0 1-4.432-3.224l-14.368-44.112a4.66 4.66 0 0 1 8.864-2.872l14.368 44.112a4.668 4.668 0 0 1-2.992 5.872c-0.472 0.16-0.96 0.224-1.44 0.224M615.352 718.904a4.664 4.664 0 0 1-4.432-3.216l-11.256-34.576c-0.792-2.44 0.544-5.072 2.992-5.872s5.072 0.552 5.872 3l11.256 34.56a4.668 4.668 0 0 1-2.984 5.88c-0.48 0.152-0.968 0.224-1.448 0.224M598.472 667.048a4.664 4.664 0 0 1-4.432-3.216l-13.128-40.328a4.676 4.676 0 0 1 2.984-5.88 4.664 4.664 0 0 1 5.88 2.984l13.128 40.336a4.676 4.676 0 0 1-2.984 5.88c-0.48 0.152-0.976 0.224-1.448 0.224M583.904 779.432a4.66 4.66 0 0 1-4.376-3.064l-26.576-72.944a4.658 4.658 0 0 1 2.784-5.968c2.44-0.88 5.088 0.36 5.976 2.784l26.568 72.944a4.654 4.654 0 0 1-4.376 6.248M551.64 690.88a4.66 4.66 0 0 1-4.376-3.064l-9.664-26.544c-0.88-2.416 0.36-5.088 2.784-5.968s5.088 0.36 5.968 2.784l9.664 26.544a4.654 4.654 0 0 1-4.376 6.248" fill="#474341" p-id="675"></path></svg>